<svg xmlns="http://www.w3.org/2000/svg" viewBox="0 0 150 150">
<!-- SVG created with Arrow, by QuiverAI (https://quiver.ai) -->
  <style type="text/css">.cls-0 {fill:#062954;}
.cls-1 {fill:#07284E;}
.cls-2 {fill:#2181C4;}</style>
  <path class="cls-0" d="m16.4 118.6c13.3-22 28.5-48.5 38.6-71.7 3.4-7.9 7-17.1 9.4-26.5 1.2 6.7 4.3 20.1 4.3 36.6 0 17.4-3.1 33.8-8.7 52.1l-1.8 2.5c-2.3-0.3-4.7-0.5-7.6-0.5-12.3 0-24.3 3.5-34.2 7.5z"/>
  <path class="cls-0" d="m66.7 109.4c7.4-15.7 12.4-30.9 12.4-55.1 0-16.8-4.3-34.3-8.6-51.6 12.1 6.7 26.4 17.7 37.4 32.3 9.8 12.8 17.8 31.4 17.8 51.4 0 3.9-0.5 7.8-1.8 13.3-3.7-0.5-7.2-1-12.9-1-13 0-25.5 3.2-44.3 10.7z"/>
  <path class="cls-1" d="m113.7 130.3c-14.7 0-33.5-3.8-49.3-4.7-4.6-0.2-9.9-0.6-15.3-0.6-6.7 0-17.3 0.3-27 1.6 9.7-3.7 24.4-7.7 47.8-11.6 24.4-4.2 49.9-8.9 66.5-9.7-6.2 8.2-14.4 17.9-22.7 25z"/>
  <path class="cls-2" d="m5.6 138.9c9.8-4.5 20.5-8.3 43.9-8.6 6.1 0 12.7 0.1 21 1.3 5.6 0.3 12.8 1.5 19.5 2.4 7.8 1.3 15.9 2.8 26.2 2.8 9.1 0 17.7-1.1 28.2-4.5-8.4 7.5-21.7 15.3-44.4 15.6-19.6 0-37.5-6.1-54.7-8.9-6.4-1-12.3-1.6-19.8-1.8-6.1 0-13.3 0.4-19.9 1.7z"/>
</svg>