<svg xmlns="http://www.w3.org/2000/svg" viewBox="0 0 200 46.7">
<!-- SVG created with Arrow, by QuiverAI (https://quiver.ai) -->
  <style type="text/css">.cls-0 {fill:#113F70;}
.cls-1 {fill:#0FABE4;}</style>
  <path class="cls-0" d="m19.5 0c3.6 11.4 5.2 19.8-0.8 34 5.2-1.6 9.5-3.6 17.7-2.9 1.2-3.1 1.7-18.6-16.9-31.1z"/>
  <path class="cls-0" d="m17.7 6.4c-1.8 6.2-9.3 21.4-14.2 30.8 4.4-1.6 7.9-2.9 12.3-2.4 4.7-9.3 4.2-19.1 1.9-28.4z"/>
  <path class="cls-0" d="m4.8 39.7c8.7-1.6 19 0.2 28.2 1 2.1-2 5.6-5.7 7.3-8-7 0.2-24.3 2.5-35.5 7z"/>
  <path class="cls-1" d="m0 43.3c2.5-1.6 7.6-2.9 13.6-2.8 8.7 0 15.2 2.2 20.4 2.2 2.8 0 5.6-0.4 8.8-1.2-2.6 2.2-7.6 4.4-11.4 4.6h-5.6c-6.7-0.5-13-3.8-25.8-2.8z"/>
  <path class="cls-0" d="m67.1 11.6h-12.8c-5.1 0-7.6 3.4-7.6 7.2s2.3 7.1 7.6 7.1h6.2c2.4 0 3.7 1.2 3.7 3.4 0 1.6-1.1 3.1-3.3 3.1h-13c-0.5 0-0.8 0.3-0.8 0.9v2.5c0 0.5 0.2 0.6 0.6 0.6h13.4c5.3 0 7.8-2.8 7.8-7.2 0-3.8-2.2-7.1-7.8-7.1h-6.5c-2 0-3.4-1-3.4-3.2 0-1.6 1.1-3.2 3.1-3.2h13.1v-3.2c0.1-0.5-0.2-0.9-0.3-0.9z"/>
  <path class="cls-0" d="m81.9 19h-9.3v3.4h8.5c1.8 0 2.7 1 2.7 2.5v0.9h-7.1c-3.6 0-5.9 1.8-5.9 5.3s1.8 5.3 5.7 5.3h11.4v-11.3c0-3.7-1.8-5.9-6-6.1zm1.9 14.3h-6.4c-1.4 0-2.4-0.7-2.4-2.3 0-1.2 0.9-2.2 2.2-2.2h6.6v4.5z"/>
  <path class="cls-0" d="m94.3 11.6h-2.6c-0.5 0-1 0.3-1 0.9v2.9c0 0.6 0.4 0.9 0.9 0.9h2.7c0.5 0 1-0.2 1-0.8v-2.9c0-0.5-0.4-1-1-1z"/>
  <path class="cls-0" d="m95.4 19h-4.6v17.5h3.7c0.6 0 0.9-0.2 0.9-0.7v-16.8z"/>
  <path class="cls-0" d="m105.3 32.8c-1.2 0-2.7 0.2-2.7-1.7v-19.5h-4.3v20c0 3.1 1.7 4.8 4.9 4.8h1.7c0.4 0 0.6-0.1 0.6-0.5v-3.1h-0.2z"/>
  <path class="cls-0" d="m121.5 11.6h-14v4.1h13.5c5.4 0 8.7 2.7 8.7 8.6 0 4.9-2.9 8.1-8 8.1h-9.3v-12.7c0-0.5-0.3-0.7-0.7-0.7h-4.1v17.4h14.1c8 0 12.7-4 12.7-12.1 0-8-4.5-12.7-12.9-12.7z"/>
  <path class="cls-0" d="m152.2 19h-13.6c-0.7 0.1-0.9 0.4-0.9 0.7v3.2c0 0.4 0 0.5 0.6 0.5h13.1c1.7 0 2.2 1 2.2 2.2v0.7h-10.1c-3.6 0-6.1 2.2-6.1 5.6 0 3.5 2.2 5.5 5.4 5.5h14.5c0.4 0 0.6-0.2 0.7-0.5v-11.5c0-3.8-1.9-6.4-5.8-6.4zm1.3 14.5h-9.4c-1.5 0-2.2-0.4-2.1-1.8 0-0.8 0.6-1.6 1.7-1.6h9.8v3.4z"/>
  <path class="cls-0" d="m178 19.1z"/>
  <path class="cls-0" d="m170.9 33.3c-0.5 0-0.4-0.1-0.6-0.2-0.3-0.3-0.2-0.1-0.4-0.5 0.2 0.2 0.1 0 0.1 0v-0.1c0-0.1-0.1-0.4 0-0.2v-0.1c-0.1-0.2-0.1-0.4-0.1-0.7v-8.2h7.1c0.9 0 0.9-0.5 1-0.7v-3.6h-7.4v-3.6c0-0.4-0.3-0.6-0.7-0.6h-4v4.2h-5.2c-0.5 0-0.9 0.3-0.9 0.7v2.9c0 0.6 0.3 0.7 0.7 0.7h5.3v9c0 3.6 2.4 5.1 5.3 5.1h6.3c0.6 0 0.6-0.4 0.7-0.6v-3.6l-7.2 0.1z"/>
  <path class="cls-0" d="m193.5 19h-11.2c-0.4 0-0.7 0 0 0h-0.1c-0.5 0-0.8 0.1-0.8 0.1-0.2 0.1 0 0-0.2 0.2 0.1-0.1 0 0.1 0 0.1 0 0.1-0.1 0.2 0 0.1v0.1c-0.1 0.2 0 0 0 0.4v2.9c0 0.4 0.2 0.5 0.8 0.5h10.9c1.7 0 2.3 1 2.3 2.2v0.7h-10.1c-3.4 0-5.2 2.1-5.2 3.7 0 0.1-0.1 0.2-0.1 0.4-0.7 4 1.6 7 5.4 7h13.7v-11.7c0-3.7-1.5-6.4-5.4-6.7zm1.6 14.5h-9-0.8c-1 0-0.9 0-1.1-0.1s-0.3-0.2-0.4-0.3c-0.1-0.2-0.3-0.5-0.3-1.1 0.1-0.8 0.5-1.6 1.5-1.6h10.1v3.1z"/>
</svg>
